<?xml version="1.0" encoding="UTF-8" standalone="no"?>
<svg
   xmlns:dc="http://purl.org/dc/elements/1.1/"
   xmlns:cc="http://creativecommons.org/ns#"
   xmlns:rdf="http://www.w3.org/1999/02/22-rdf-syntax-ns#"
   xmlns:svg="http://www.w3.org/2000/svg"
   xmlns="http://www.w3.org/2000/svg"
   version="1.1"
   id="svg2"
   xml:space="preserve"
   width="500"
   height="164.41055"
   viewBox="0 0 500.00002 164.41055"><metadata
     id="metadata8"><rdf:RDF><cc:Work
         rdf:about=""><dc:format>image/svg+xml</dc:format><dc:type
           rdf:resource="http://purl.org/dc/dcmitype/StillImage" /><dc:title></dc:title></cc:Work></rdf:RDF></metadata><defs
     id="defs6"><clipPath
       clipPathUnits="userSpaceOnUse"
       id="clipPath18"><path
         d="M 0,807.874 H 1440 V 0 H 0 Z"
         id="path16" /></clipPath></defs><g
     id="g10"
     transform="matrix(1.3333333,0,0,-1.3333333,-576.34674,664.73601)"><g
       id="g12"><g
         id="g14"
         clip-path="url(#clipPath18)"><g
           id="g20"
           transform="translate(564.0356,403.9365)" /><g
           id="g879"
           transform="matrix(0.65163037,0,0,0.65163037,150.58628,173.68038)"><path
             d="M 50.791298,1.9539586e-4 C 50.791298,16.305742 37.47173,29.62531 21.166857,29.62531 4.8619846,29.62531 -8.4575836,16.305742 -8.4575836,1.9539586e-4 -8.4575836,-16.304677 4.8619846,-29.39497 21.166857,-29.39497 c 16.304873,0 29.624441,13.090293 29.624441,29.39516539586 m 17.682549,0 C 68.473847,-25.949765 47.346768,-47.306795 21.166857,-47.306795 c -26.1799107,0 -47.307665,21.35703 -47.307665,47.30699039586 C -26.140808,26.180106 -5.0130537,47.30786 21.166857,47.30786 c 26.179911,0 47.30699,-21.127754 47.30699,-47.30766460414"
             style="fill:#ffe00a;fill-opacity:1;fill-rule:nonzero;stroke:none;stroke-width:0.67434"
             id="path22"
             transform="translate(564.0356,403.9365)" /><g
             id="g24"
             transform="matrix(0.67434023,0,0,0.67434023,723.21623,403.9367)"><path
               d="m 0,0 c 0,24.18 -19.752,43.591 -43.932,43.591 -24.179,0 -43.59,-19.411 -43.59,-43.591 0,-24.179 19.411,-43.932 43.59,-43.932 C -19.752,-43.932 0,-24.179 0,0 m 26.222,0 c 0,-38.823 -31.33,-70.153 -70.154,-70.153 -38.482,0 -70.153,31.33 -70.153,70.153 v 140.308 h 26.563 V 54.489 c 11.919,9.876 27.244,15.665 43.59,15.665 38.824,0 70.154,-31.672 70.154,-70.154"
               style="fill:#12110d;fill-opacity:1;fill-rule:nonzero;stroke:none"
               id="path26" /></g><g
             id="g28"
             transform="matrix(0.67434023,0,0,0.67434023,801.98005,451.24423)"><path
               d="m 0,0 v -26.222 c -24.179,0 -43.591,-19.752 -43.591,-43.932 v -70.153 h -26.562 v 70.153 C -70.153,-31.331 -38.482,0 0,0"
               style="fill:#12110d;fill-opacity:1;fill-rule:nonzero;stroke:none"
               id="path30" /></g><g
             id="g32"
             transform="matrix(0.67434023,0,0,0.67434023,881.66812,403.9367)"><path
               d="m 0,0 c 0,24.18 -19.752,43.932 -43.932,43.932 -24.179,0 -43.93,-19.752 -43.93,-43.932 0,-24.179 19.751,-43.932 43.93,-43.932 C -19.752,-43.932 0,-24.179 0,0 M 26.222,0 V -70.153 H 0 v 15.325 c -12.26,-9.535 -27.245,-15.325 -43.932,-15.325 -38.823,0 -70.153,31.33 -70.153,70.153 0,38.823 31.33,70.154 70.153,70.154 38.824,0 70.154,-31.331 70.154,-70.154"
               style="fill:#12110d;fill-opacity:1;fill-rule:nonzero;stroke:none"
               id="path34" /></g><g
             id="g36"
             transform="matrix(0.67434023,0,0,0.67434023,1007.7397,451.24423)"><path
               d="M 0,0 -53.466,-70.154 0,-140.307 h -33.033 l -37.12,48.699 -37.121,-48.699 h -33.033 L -86.84,-70.154 -140.307,0 h 33.033 L -70.153,-48.358 -33.033,0 Z"
               style="fill:#12110d;fill-opacity:1;fill-rule:nonzero;stroke:none"
               id="path38" /></g><g
             id="g40"
             transform="matrix(0.67434023,0,0,0.67434023,479.56773,374.54167)"><path
               d="m 0,0 c -24.179,0 -43.591,19.412 -43.591,43.591 0,24.18 19.412,43.931 43.591,43.931 24.179,0 43.931,-19.751 43.931,-43.931 C 43.931,19.412 24.179,0 0,0 M 43.931,113.745 V 98.32 C 31.917,107.968 16.653,113.745 0,113.745 c -38.482,0 -70.154,-31.331 -70.154,-70.154 0,-38.483 31.672,-70.153 70.154,-70.153 16.687,0 32.012,5.79 43.931,15.666 v -15.326 -0.34 c 0,-24.18 -19.752,-43.591 -43.931,-43.591 -17.709,0 -33.375,10.897 -40.186,26.221 H -67.77 c 7.833,-30.308 35.077,-52.784 67.77,-52.784 38.823,0 70.153,31.671 70.153,70.154 v 0.34 47.304 22.509 70.154 z"
               style="fill:#ffe00a;fill-opacity:1;fill-rule:nonzero;stroke:none"
               id="path42" /></g></g></g></g></g></svg>
